<svg width="113" height="44" viewBox="0 0 113 44" fill="none" xmlns="http://www.w3.org/2000/svg">
<rect x="0.5" y="0.5" width="112" height="43" rx="7.5" fill="white"/>
<rect x="0.5" y="0.5" width="112" height="43" rx="7.5" stroke="#E5E5E5"/>
<path d="M29 29H15V18H29M26 11V13H18V11H16V13H15C13.89 13 13 13.89 13 15V29C13 29.5304 13.2107 30.0391 13.5858 30.4142C13.9609 30.7893 14.4696 31 15 31H29C29.5304 31 30.0391 30.7893 30.4142 30.4142C30.7893 30.0391 31 29.5304 31 29V15C31 14.4696 30.7893 13.9609 30.4142 13.5858C30.0391 13.2107 29.5304 13 29 13H28V11M27 22H22V27H27V22Z" fill="#4B5054"/>
<path d="M49.312 28.192C48.4373 28.192 47.6587 27.968 46.976 27.52C46.304 27.072 45.776 26.4373 45.392 25.616C45.0187 24.7947 44.832 23.824 44.832 22.704C44.832 21.584 45.0187 20.624 45.392 19.824C45.776 19.0133 46.304 18.3947 46.976 17.968C47.6587 17.5307 48.4373 17.312 49.312 17.312C50.1973 17.312 50.976 17.5307 51.648 17.968C52.32 18.3947 52.848 19.0133 53.232 19.824C53.616 20.624 53.808 21.584 53.808 22.704C53.808 23.824 53.616 24.7947 53.232 25.616C52.848 26.4373 52.32 27.072 51.648 27.52C50.976 27.968 50.1973 28.192 49.312 28.192ZM49.312 27.024C49.9413 27.024 50.4853 26.848 50.944 26.496C51.4133 26.1333 51.776 25.632 52.032 24.992C52.288 24.3413 52.416 23.5787 52.416 22.704C52.416 21.4027 52.1333 20.3733 51.568 19.616C51.0027 18.8587 50.2507 18.48 49.312 18.48C48.3733 18.48 47.6213 18.8587 47.056 19.616C46.4907 20.3733 46.208 21.4027 46.208 22.704C46.208 23.5787 46.336 24.3413 46.592 24.992C46.848 25.632 47.2107 26.1333 47.68 26.496C48.1493 26.848 48.6933 27.024 49.312 27.024ZM59.009 28.192C58.3263 28.192 57.7077 28.032 57.153 27.712C56.5983 27.392 56.161 26.928 55.841 26.32C55.521 25.712 55.361 24.9813 55.361 24.128C55.361 23.2533 55.5317 22.512 55.873 21.904C56.225 21.296 56.6837 20.832 57.249 20.512C57.825 20.192 58.4437 20.032 59.105 20.032C59.617 20.032 60.0543 20.1227 60.417 20.304C60.7903 20.4853 61.1103 20.6987 61.377 20.944L60.705 21.808C60.481 21.6053 60.241 21.44 59.985 21.312C59.7397 21.184 59.4623 21.12 59.153 21.12C58.6837 21.12 58.2623 21.248 57.889 21.504C57.5263 21.7493 57.2383 22.1013 57.025 22.56C56.8223 23.008 56.721 23.5307 56.721 24.128C56.721 25.0133 56.9397 25.7333 57.377 26.288C57.825 26.832 58.4063 27.104 59.121 27.104C59.4837 27.104 59.8197 27.0293 60.129 26.88C60.4383 26.72 60.7103 26.5333 60.945 26.32L61.521 27.2C61.169 27.5093 60.7797 27.7547 60.353 27.936C59.9263 28.1067 59.4783 28.192 59.009 28.192ZM65.5256 28.192C64.6936 28.192 64.1123 27.952 63.7816 27.472C63.4616 26.992 63.3016 26.368 63.3016 25.6V21.296H62.1496V20.304L63.3656 20.224L63.5256 18.048H64.6296V20.224H66.7256V21.296H64.6296V25.616C64.6296 26.096 64.715 26.4693 64.8856 26.736C65.067 26.992 65.3816 27.12 65.8296 27.12C65.9683 27.12 66.1176 27.0987 66.2776 27.056C66.4376 27.0027 66.5816 26.9547 66.7096 26.912L66.9656 27.904C66.7523 27.9787 66.5176 28.0427 66.2616 28.096C66.0163 28.16 65.771 28.192 65.5256 28.192ZM71.015 28V27.216C72.039 26.192 72.9083 25.296 73.623 24.528C74.3377 23.7493 74.8817 23.0507 75.255 22.432C75.6283 21.8027 75.815 21.216 75.815 20.672C75.815 20.0853 75.655 19.6053 75.335 19.232C75.015 18.8587 74.5297 18.672 73.879 18.672C73.4523 18.672 73.0577 18.7947 72.695 19.04C72.3323 19.2747 72.0017 19.5627 71.703 19.904L70.951 19.152C71.3777 18.6827 71.831 18.3093 72.311 18.032C72.8017 17.744 73.3777 17.6 74.039 17.6C74.9883 17.6 75.735 17.8773 76.279 18.432C76.823 18.976 77.095 19.7013 77.095 20.608C77.095 21.248 76.9137 21.8987 76.551 22.56C76.199 23.2107 75.7083 23.8987 75.079 24.624C74.4603 25.3387 73.7457 26.1173 72.935 26.96C73.2123 26.9387 73.5003 26.9173 73.799 26.896C74.0977 26.8747 74.3803 26.864 74.647 26.864H77.607V28H71.015ZM82.3121 28.192C81.2881 28.192 80.4828 27.7333 79.8961 26.816C79.3201 25.888 79.0321 24.5707 79.0321 22.864C79.0321 21.1467 79.3201 19.84 79.8961 18.944C80.4828 18.048 81.2881 17.6 82.3121 17.6C83.3255 17.6 84.1201 18.048 84.6961 18.944C85.2828 19.84 85.5761 21.1467 85.5761 22.864C85.5761 24.5707 85.2828 25.888 84.6961 26.816C84.1201 27.7333 83.3255 28.192 82.3121 28.192ZM82.3121 27.136C82.9095 27.136 83.3895 26.8 83.7521 26.128C84.1148 25.4453 84.2961 24.3573 84.2961 22.864C84.2961 21.3707 84.1148 20.2987 83.7521 19.648C83.3895 18.9867 82.9095 18.656 82.3121 18.656C81.7148 18.656 81.2295 18.9867 80.8561 19.648C80.4935 20.2987 80.3121 21.3707 80.3121 22.864C80.3121 24.3573 80.4935 25.4453 80.8561 26.128C81.2295 26.8 81.7148 27.136 82.3121 27.136ZM86.9213 28V27.216C87.9453 26.192 88.8146 25.296 89.5293 24.528C90.2439 23.7493 90.7879 23.0507 91.1613 22.432C91.5346 21.8027 91.7213 21.216 91.7213 20.672C91.7213 20.0853 91.5613 19.6053 91.2413 19.232C90.9213 18.8587 90.4359 18.672 89.7853 18.672C89.3586 18.672 88.9639 18.7947 88.6013 19.04C88.2386 19.2747 87.9079 19.5627 87.6093 19.904L86.8573 19.152C87.2839 18.6827 87.7373 18.3093 88.2173 18.032C88.7079 17.744 89.2839 17.6 89.9453 17.6C90.8946 17.6 91.6413 17.8773 92.1853 18.432C92.7293 18.976 93.0013 19.7013 93.0013 20.608C93.0013 21.248 92.8199 21.8987 92.4573 22.56C92.1053 23.2107 91.6146 23.8987 90.9852 24.624C90.3666 25.3387 89.6519 26.1173 88.8413 26.96C89.1186 26.9387 89.4066 26.9173 89.7053 26.896C90.0039 26.8747 90.2866 26.864 90.5533 26.864H93.5133V28H86.9213ZM97.9784 28.192C97.1677 28.192 96.4957 28.048 95.9624 27.76C95.429 27.472 94.9864 27.152 94.6344 26.8L95.2744 25.936C95.5837 26.2347 95.941 26.5067 96.3464 26.752C96.7517 26.9867 97.253 27.104 97.8504 27.104C98.4797 27.104 99.0077 26.896 99.4344 26.48C99.8717 26.0533 100.09 25.4827 100.09 24.768C100.09 24.064 99.893 23.5147 99.4984 23.12C99.1037 22.7253 98.5757 22.528 97.9144 22.528C97.5624 22.528 97.2584 22.5813 97.0024 22.688C96.757 22.7947 96.4797 22.9493 96.1704 23.152L95.4664 22.704L95.8024 17.792H100.906V18.928H96.9544L96.6824 21.952C96.9277 21.824 97.173 21.7227 97.4184 21.648C97.6637 21.5733 97.941 21.536 98.2504 21.536C98.837 21.536 99.365 21.6533 99.8344 21.888C100.314 22.112 100.698 22.4587 100.986 22.928C101.274 23.3973 101.418 24 101.418 24.736C101.418 25.472 101.253 26.1013 100.922 26.624C100.602 27.136 100.181 27.5253 99.6584 27.792C99.1357 28.0587 98.5757 28.192 97.9784 28.192Z" fill="#4B5054"/>
</svg>
