<svg width="24" height="21" viewBox="0 0 24 21" fill="none" xmlns="http://www.w3.org/2000/svg">
<path d="M24 7.49711C23.9991 7.08489 23.8708 6.68301 23.6327 6.34648C23.3947 6.00995 23.0584 5.75521 22.67 5.61711C22.5937 5.59231 22.5128 5.58482 22.4332 5.5952C22.3537 5.60558 22.2774 5.63356 22.21 5.67711C22.1459 5.72473 22.0935 5.78649 22.0571 5.85759C22.0207 5.92869 22.0012 6.00723 22 6.08711V9.91711C22.0012 9.99699 22.0207 10.0755 22.0571 10.1466C22.0935 10.2177 22.1459 10.2795 22.21 10.3271C22.2771 10.3713 22.3534 10.3997 22.4331 10.4101C22.5128 10.4205 22.5938 10.4126 22.67 10.3871C23.06 10.2484 23.3974 9.99218 23.6356 9.65366C23.8738 9.31514 24.0012 8.91105 24 8.49711V7.49711ZM20.5 1.49711C20.4994 1.24503 20.4349 0.997202 20.3125 0.776836C20.1901 0.556471 20.0137 0.37077 19.8 0.237113C18.97 -0.292887 18.33 0.147113 17.08 0.757113C13.9772 2.43113 10.5243 3.35257 7 3.44711C6.92991 3.44676 6.86053 3.46115 6.79636 3.48934C6.73219 3.51754 6.67467 3.55891 6.62752 3.61077C6.58037 3.66263 6.54466 3.72383 6.52269 3.79038C6.50072 3.85694 6.49299 3.92737 6.5 3.99711V12.5871C6.5188 14.115 6.958 15.6082 7.76942 16.903C8.58085 18.1977 9.73317 19.244 11.1 19.9271C11.3387 20.0451 11.6145 20.0635 11.8667 19.9782C12.119 19.8928 12.327 19.7108 12.445 19.4721C12.563 19.2334 12.5814 18.9576 12.4961 18.7054C12.4107 18.4531 12.2287 18.2451 11.99 18.1271C10.9739 17.6229 10.1137 16.8526 9.50083 15.8981C8.888 14.9437 8.54556 13.8408 8.51 12.7071C11.4985 12.9394 14.408 13.7799 17.06 15.1771C18.44 15.8271 19 16.1771 19.82 15.6871C20.0308 15.5495 20.2036 15.361 20.3224 15.1391C20.4413 14.9171 20.5023 14.6689 20.5 14.4171V1.49711ZM5 3.99711C5.00039 3.93012 4.98731 3.86373 4.96155 3.80188C4.93578 3.74004 4.89784 3.68401 4.85 3.63711C4.75607 3.54657 4.63046 3.49633 4.5 3.49711H3.5C3.04 3.49579 2.58428 3.58542 2.15905 3.76085C1.73381 3.93627 1.34745 4.19403 1.02218 4.5193C0.696914 4.84456 0.439156 5.23093 0.263732 5.65616C0.0883084 6.0814 -0.00132083 6.53712 -8.89623e-07 6.99711V8.99711C0.00130722 9.45759 0.0934664 9.91327 0.271196 10.3381C0.448925 10.7629 0.708731 11.1484 1.03573 11.4726C1.36272 11.7968 1.75048 12.0533 2.17677 12.2274C2.60307 12.4015 3.05953 12.4897 3.52 12.4871H4.52C4.6474 12.482 4.76805 12.4285 4.85727 12.3374C4.94649 12.2463 4.99755 12.1246 5 11.9971V3.99711Z" fill="white"/>
</svg>
