<svg width="29" height="19" viewBox="0 0 29 19" fill="none" xmlns="http://www.w3.org/2000/svg">
<path d="M19.5647 7.82586C21.7298 7.82586 23.4645 6.07809 23.4645 3.91293C23.4645 1.74778 21.7298 0 19.5647 0C17.3995 0 15.6517 1.74778 15.6517 3.91293C15.6517 6.07809 17.3995 7.82586 19.5647 7.82586ZM9.13017 7.82586C11.2953 7.82586 13.0301 6.07809 13.0301 3.91293C13.0301 1.74778 11.2953 0 9.13017 0C6.96502 0 5.21724 1.74778 5.21724 3.91293C5.21724 6.07809 6.96502 7.82586 9.13017 7.82586ZM9.13017 10.4345C6.09113 10.4345 0 11.9605 0 14.9996V16.956C0 17.6734 0.58694 18.2603 1.30431 18.2603H16.956C17.6734 18.2603 18.2603 17.6734 18.2603 16.956V14.9996C18.2603 11.9605 12.1692 10.4345 9.13017 10.4345ZM19.5647 10.4345C19.1864 10.4345 18.756 10.4606 18.2995 10.4997C18.3256 10.5127 18.3386 10.5388 18.3517 10.5519C19.8386 11.6345 20.869 13.0822 20.869 14.9996V16.956C20.869 17.4125 20.7777 17.856 20.6342 18.2603H27.3905C28.1079 18.2603 28.6948 17.6734 28.6948 16.956V14.9996C28.6948 11.9605 22.6037 10.4345 19.5647 10.4345Z" fill="white"/>
</svg>
