<svg width="20" height="17" viewBox="0 0 20 17" fill="none" xmlns="http://www.w3.org/2000/svg">
<path d="M19.5 1.34021C19.6347 1.41797 19.7494 1.52606 19.8349 1.65591C19.9205 1.78576 19.9746 1.93378 19.993 2.08821L20 2.20621V15.2062C20 15.3817 19.9538 15.5542 19.866 15.7062C19.7782 15.8582 19.652 15.9844 19.5 16.0722C19.348 16.16 19.1755 16.2062 19 16.2062C18.8245 16.2062 18.652 16.16 18.5 16.0722C17.3669 15.4179 16.0907 15.0516 14.7831 15.0052C13.4756 14.9588 12.1766 15.2339 11 15.8062V0.632207C12.3814 0.116216 13.8598 -0.08789 15.3293 0.0345114C16.7988 0.156913 18.223 0.602791 19.5 1.34021ZM9 0.633207L9.001 15.8072C7.8708 15.257 6.62686 14.9809 5.37002 15.0012C4.11318 15.0215 2.87881 15.3378 1.767 15.9242L1.44 16.1042L1.337 16.1482L1.288 16.1642L1.178 16.1902L1.117 16.2002L1 16.2062H0.958L0.848 16.1942L0.771 16.1802L0.663 16.1482L0.537 16.0922L0.442 16.0362L0.353 15.9692L0.293 15.9132L0.22 15.8312L0.156 15.7422L0.134 15.7062L0.102 15.6462L0.0580001 15.5432L0.0420001 15.4942L0.016 15.3842L0.00600004 15.3232L0.00200009 15.2742L0 2.20621C4.45922e-06 2.03067 0.0462129 1.85824 0.133981 1.70622C0.221749 1.55421 0.347985 1.42797 0.5 1.34021C1.77705 0.602954 3.20134 0.15725 4.67084 0.0350216C6.14035 -0.0872068 7.6187 0.117066 9 0.633207Z" fill="white"/>
</svg>
